# xmcd CD database file
#
# Track frame offsets:
#	150
#	37306
#	69069
#	89385
#	125232
#	149233
#	185868
#	223982
#	254751
#
# Disc length: 3558 seconds
#
# Revision: 0
# Processed by: cddbd v1.5.2PL0 Copyright (c) Steve Scherf et al.
# Submitted via: CDex 1.70beta2
#
DISCID=a10de409
DTITLE=AAVV (Cybertraks NovaEra) - Armonia dell' ACQUA
DYEAR=2001
DGENRE=New Age
TTITLE0=The Call of the Dancing Tribe (Sunrise)
TTITLE1=Looking for Atlantis (UPI)
TTITLE2=Sun Island (K Cop)
TTITLE3=The Call of the Sea (The Sonic Theatre)
TTITLE4=Ambyent (NEVE)
TTITLE5=From the Mounting to the Sea (UPI)
TTITLE6=The Wave (The Sonic Theatre)
TTITLE7=A Night in the Jungle (Sunrise)
TTITLE8=Deep World (Dioxide)
EXTD=YEAR: 2001
EXTT0=
EXTT1=
EXTT2=
EXTT3=
EXTT4=
EXTT5=
EXTT6=
EXTT7=
EXTT8=
PLAYORDER=
